<svg xmlns="http://www.w3.org/2000/svg" width="800" height="450" viewBox="0 0 800 450">
  <rect width="800" height="450" fill="#0d1117"/>
  <rect x="0" y="0" width="800" height="60" fill="#161b22" opacity="0.9"/>
  <text x="40" y="38" font-family="serif" font-size="20" fill="#f0c4d4" font-weight="bold" font-style="italic">Dang Beauty</text>
  <text x="650" y="38" font-family="sans-serif" font-size="13" fill="#8b949e">Cart (0)  Sign in</text>
  <rect x="30" y="80" width="220" height="280" rx="10" fill="#161b22" stroke="#30363d" stroke-width="1"/>
  <rect x="30" y="80" width="220" height="160" rx="10" fill="#2a1a2e"/>
  <text x="140" y="172" font-family="serif" font-size="13" fill="#f0c4d4" text-anchor="middle">✦</text>
  <text x="140" y="290" font-family="sans-serif" font-size="11" fill="#cdd6f4" text-anchor="middle" font-weight="600">Rose Glow Serum</text>
  <text x="140" y="308" font-family="sans-serif" font-size="10" fill="#8b949e" text-anchor="middle">Skincare</text>
  <text x="140" y="328" font-family="sans-serif" font-size="13" fill="#f0c4d4" text-anchor="middle" font-weight="700">$38.00</text>
  <rect x="55" y="342" width="170" height="32" rx="16" fill="#c084a0"/>
  <text x="140" y="363" font-family="sans-serif" font-size="11" fill="#fff" text-anchor="middle" font-weight="600">Add to Cart</text>

  <rect x="270" y="80" width="220" height="280" rx="10" fill="#161b22" stroke="#30363d" stroke-width="1"/>
  <rect x="270" y="80" width="220" height="160" rx="10" fill="#1a2030"/>
  <text x="380" y="172" font-family="serif" font-size="13" fill="#a0c4f0" text-anchor="middle">✦</text>
  <text x="380" y="290" font-family="sans-serif" font-size="11" fill="#cdd6f4" text-anchor="middle" font-weight="600">Hydra Mist Toner</text>
  <text x="380" y="308" font-family="sans-serif" font-size="10" fill="#8b949e" text-anchor="middle">Toner</text>
  <text x="380" y="328" font-family="sans-serif" font-size="13" fill="#f0c4d4" text-anchor="middle" font-weight="700">$24.00</text>
  <rect x="295" y="342" width="170" height="32" rx="16" fill="#c084a0"/>
  <text x="380" y="363" font-family="sans-serif" font-size="11" fill="#fff" text-anchor="middle" font-weight="600">Add to Cart</text>

  <rect x="510" y="80" width="220" height="280" rx="10" fill="#161b22" stroke="#30363d" stroke-width="1"/>
  <rect x="510" y="80" width="220" height="160" rx="10" fill="#1e2a1e"/>
  <text x="620" y="172" font-family="serif" font-size="13" fill="#a0f0c4" text-anchor="middle">✦</text>
  <text x="620" y="290" font-family="sans-serif" font-size="11" fill="#cdd6f4" text-anchor="middle" font-weight="600">Vitamin C Brightener</text>
  <text x="620" y="308" font-family="sans-serif" font-size="10" fill="#8b949e" text-anchor="middle">Treatment</text>
  <text x="620" y="328" font-family="sans-serif" font-size="13" fill="#f0c4d4" text-anchor="middle" font-weight="700">$52.00</text>
  <rect x="535" y="342" width="170" height="32" rx="16" fill="#c084a0"/>
  <text x="620" y="363" font-family="sans-serif" font-size="11" fill="#fff" text-anchor="middle" font-weight="600">Add to Cart</text>
  <!-- Stripe badge -->
  <rect x="30" y="390" width="80" height="22" rx="4" fill="#635bff" opacity="0.3"/>
  <text x="70" y="405" font-family="sans-serif" font-size="9" fill="#a5a0ff" text-anchor="middle">Stripe ✓</text>
</svg>
