<svg xmlns="http://www.w3.org/2000/svg" width="800" height="450" viewBox="0 0 800 450">
  <rect width="800" height="450" fill="#0d1117"/>
  <rect x="60" y="60" width="680" height="330" rx="12" fill="#161b22" stroke="#30363d" stroke-width="1"/>
  <!-- Header bar -->
  <rect x="60" y="60" width="680" height="48" rx="12" fill="#1f2937"/>
  <rect x="60" y="96" width="680" height="12" fill="#1f2937"/>
  <circle cx="92" cy="84" r="6" fill="#ff5f57"/>
  <circle cx="112" cy="84" r="6" fill="#ffbd2e"/>
  <circle cx="132" cy="84" r="6" fill="#28c840"/>
  <text x="400" y="89" font-family="monospace" font-size="13" fill="#8b949e" text-anchor="middle">Job Tracker</text>
  <!-- Sidebar -->
  <rect x="60" y="108" width="160" height="282" fill="#0d1117"/>
  <rect x="80" y="128" width="120" height="10" rx="5" fill="#21262d"/>
  <rect x="80" y="148" width="100" height="8" rx="4" fill="#1f6feb" opacity="0.8"/>
  <rect x="80" y="166" width="110" height="8" rx="4" fill="#21262d"/>
  <rect x="80" y="184" width="95" height="8" rx="4" fill="#21262d"/>
  <rect x="80" y="202" width="105" height="8" rx="4" fill="#21262d"/>
  <!-- Main content -->
  <!-- Stats row -->
  <rect x="240" y="120" width="120" height="60" rx="8" fill="#161b22" stroke="#30363d" stroke-width="1"/>
  <text x="300" y="145" font-family="monospace" font-size="18" fill="#89b4fa" text-anchor="middle" font-weight="bold">24</text>
  <text x="300" y="165" font-family="monospace" font-size="9" fill="#8b949e" text-anchor="middle">Applied</text>

  <rect x="375" y="120" width="120" height="60" rx="8" fill="#161b22" stroke="#30363d" stroke-width="1"/>
  <text x="435" y="145" font-family="monospace" font-size="18" fill="#a6e3a1" text-anchor="middle" font-weight="bold">8</text>
  <text x="435" y="165" font-family="monospace" font-size="9" fill="#8b949e" text-anchor="middle">Interviews</text>

  <rect x="510" y="120" width="120" height="60" rx="8" fill="#161b22" stroke="#30363d" stroke-width="1"/>
  <text x="570" y="145" font-family="monospace" font-size="18" fill="#f38ba8" text-anchor="middle" font-weight="bold">3</text>
  <text x="570" y="165" font-family="monospace" font-size="9" fill="#8b949e" text-anchor="middle">Offers</text>

  <rect x="645" y="120" width="80" height="60" rx="8" fill="#161b22" stroke="#30363d" stroke-width="1"/>
  <text x="685" y="145" font-family="monospace" font-size="18" fill="#cba6f7" text-anchor="middle" font-weight="bold">13%</text>
  <text x="685" y="165" font-family="monospace" font-size="9" fill="#8b949e" text-anchor="middle">Rate</text>

  <!-- Job list -->
  <rect x="240" y="195" width="485" height="36" rx="6" fill="#1f2937"/>
  <rect x="256" y="209" width="8" height="8" rx="2" fill="#89b4fa"/>
  <rect x="272" y="211" width="100" height="6" rx="3" fill="#cdd6f4"/>
  <rect x="390" y="211" width="60" height="6" rx="3" fill="#8b949e"/>
  <rect x="630" y="208" width="50" height="10" rx="5" fill="#1f6feb" opacity="0.7"/>
  <text x="655" y="217" font-family="monospace" font-size="7" fill="#89b4fa" text-anchor="middle">Applied</text>

  <rect x="240" y="238" width="485" height="36" rx="6" fill="#161b22"/>
  <rect x="256" y="252" width="8" height="8" rx="2" fill="#a6e3a1"/>
  <rect x="272" y="254" width="120" height="6" rx="3" fill="#cdd6f4"/>
  <rect x="410" y="254" width="70" height="6" rx="3" fill="#8b949e"/>
  <rect x="630" y="251" width="50" height="10" rx="5" fill="#a6e3a1" opacity="0.3"/>
  <text x="655" y="260" font-family="monospace" font-size="7" fill="#a6e3a1" text-anchor="middle">Interview</text>

  <rect x="240" y="281" width="485" height="36" rx="6" fill="#1f2937"/>
  <rect x="256" y="295" width="8" height="8" rx="2" fill="#f9e2af"/>
  <rect x="272" y="297" width="90" height="6" rx="3" fill="#cdd6f4"/>
  <rect x="380" y="297" width="80" height="6" rx="3" fill="#8b949e"/>
  <rect x="630" y="294" width="50" height="10" rx="5" fill="#f9e2af" opacity="0.3"/>
  <text x="655" y="303" font-family="monospace" font-size="7" fill="#f9e2af" text-anchor="middle">Screening</text>

  <rect x="240" y="324" width="485" height="36" rx="6" fill="#161b22"/>
  <rect x="256" y="338" width="8" height="8" rx="2" fill="#f38ba8"/>
  <rect x="272" y="340" width="110" height="6" rx="3" fill="#cdd6f4"/>
  <rect x="400" y="340" width="65" height="6" rx="3" fill="#8b949e"/>
  <rect x="630" y="337" width="50" height="10" rx="5" fill="#f38ba8" opacity="0.3"/>
  <text x="655" y="346" font-family="monospace" font-size="7" fill="#f38ba8" text-anchor="middle">Rejected</text>
</svg>
